<svg version="1.0" preserveAspectRatio="xMidYMid meet" viewBox="32.39595050618672 298.079997424 1402.7446569178853 208.97999819400002" zoomAndPan="magnify" xmlns:xlink="http://www.w3.org/1999/xlink" xmlns="http://www.w3.org/2000/svg" style="max-height: 500px" width="1402.7446569178853" height="208.97999819400002"><defs><g/></defs><g fill-opacity="1" fill="#222222"><g transform="translate(42.705272, 486.412578)"><g><path d="M 161.25 -23.75 L 151.40625 -23.75 L 149.25 -21.359375 L 185.96875 -21.359375 C 185.800781 -21.191406 185.640625 -21.03125 185.484375 -20.875 C 185.328125 -20.71875 185.085938 -20.476562 184.765625 -20.15625 L 128.140625 -20.15625 C 127.335938 -19.351562 126.492188 -18.550781 125.609375 -17.75 C 124.734375 -16.957031 123.816406 -16.160156 122.859375 -15.359375 L 140.375 -15.359375 L 137.25 -12.953125 L 169.890625 -12.953125 L 167.96875 -11.75 L 153.8125 -11.75 C 153.644531 -11.59375 153.363281 -11.429688 152.96875 -11.265625 C 152.570312 -11.109375 152.210938 -10.875 151.890625 -10.5625 L 135.8125 -10.5625 L 129.09375 -6.953125 L 138.453125 -6.953125 C 136.367188 -5.992188 134.285156 -5.15625 132.203125 -4.4375 C 130.128906 -3.71875 127.972656 -2.957031 125.734375 -2.15625 L 117.09375 -2.15625 C 111.65625 -0.5625 105.738281 0.632812 99.34375 1.4375 L 100.546875 1.4375 C 97.984375 1.757812 95.34375 2 92.625 2.15625 C 89.90625 2.320312 87.1875 2.40625 84.46875 2.40625 C 81.425781 2.40625 78.425781 2.320312 75.46875 2.15625 C 72.507812 2 69.671875 1.757812 66.953125 1.4375 L 65.984375 1.4375 C 59.109375 0.632812 52.953125 -0.5625 47.515625 -2.15625 L 56.15625 -2.15625 C 53.75 -2.957031 51.503906 -3.71875 49.421875 -4.4375 C 47.347656 -5.15625 45.269531 -5.992188 43.1875 -6.953125 L 33.828125 -6.953125 C 32.710938 -7.597656 31.59375 -8.195312 30.46875 -8.75 C 29.351562 -9.3125 28.234375 -9.914062 27.109375 -10.5625 L 43.4375 -10.5625 L 41.515625 -11.75 L 55.671875 -11.75 C 55.503906 -12.070312 55.257812 -12.3125 54.9375 -12.46875 C 54.625 -12.632812 54.304688 -12.796875 53.984375 -12.953125 L 21.359375 -12.953125 C 20.710938 -13.273438 20.148438 -13.675781 19.671875 -14.15625 C 19.191406 -14.632812 18.710938 -15.035156 18.234375 -15.359375 L 0.484375 -15.359375 C -0.316406 -16.160156 -1.15625 -16.957031 -2.03125 -17.75 C -2.914062 -18.550781 -3.757812 -19.351562 -4.5625 -20.15625 L 52.0625 -20.15625 C 51.90625 -20.476562 51.742188 -20.71875 51.578125 -20.875 C 51.421875 -21.03125 51.265625 -21.191406 51.109375 -21.359375 L 14.390625 -21.359375 C 13.753906 -21.992188 13.117188 -22.789062 12.484375 -23.75 L 22.3125 -23.75 C 22.15625 -24.070312 21.992188 -24.3125 21.828125 -24.46875 C 21.671875 -24.632812 21.515625 -24.796875 21.359375 -24.953125 L 51.34375 -24.953125 L 49.1875 -28.546875 L 34.3125 -28.546875 L 33.59375 -29.75 L -0.234375 -29.75 C -0.398438 -30.394531 -0.640625 -30.992188 -0.953125 -31.546875 C -1.273438 -32.109375 -1.597656 -32.710938 -1.921875 -33.359375 L 14.15625 -33.359375 L 12.71875 -36.953125 L 6.953125 -36.953125 L 6.484375 -38.15625 L 9.125 -38.15625 C 8.957031 -38.789062 8.789062 -39.390625 8.625 -39.953125 C 8.46875 -40.515625 8.3125 -41.113281 8.15625 -41.75 L 6.234375 -41.75 C 6.234375 -42.394531 6.191406 -42.992188 6.109375 -43.546875 C 6.035156 -44.109375 5.921875 -44.707031 5.765625 -45.34375 L 3.84375 -45.34375 C 3.84375 -45.988281 3.800781 -46.550781 3.71875 -47.03125 C 3.632812 -47.507812 3.59375 -48.066406 3.59375 -48.703125 L 3.59375 -48.953125 L 3.359375 -48.953125 C 3.359375 -49.273438 3.394531 -49.515625 3.46875 -49.671875 C 3.550781 -49.828125 3.59375 -49.988281 3.59375 -50.15625 L 9.125 -50.15625 C 9.914062 -52.707031 11.59375 -53.984375 14.15625 -53.984375 L 59.75 -53.984375 C 62.3125 -53.984375 64.226562 -53.660156 65.5 -53.015625 C 66.78125 -52.378906 68.222656 -51.425781 69.828125 -50.15625 L 64.3125 -50.15625 L 64.546875 -49.90625 C 64.867188 -49.75 65.148438 -49.585938 65.390625 -49.421875 C 65.628906 -49.265625 65.828125 -49.109375 65.984375 -48.953125 L 66.234375 -48.953125 C 68.304688 -47.347656 70.863281 -46.144531 73.90625 -45.34375 L 76.0625 -45.34375 C 78.144531 -44.707031 80.945312 -44.390625 84.46875 -44.390625 C 86.539062 -44.390625 88.457031 -44.46875 90.21875 -44.625 C 91.976562 -44.789062 93.5 -45.03125 94.78125 -45.34375 L 94.0625 -45.34375 C 97.738281 -46.144531 100.054688 -47.347656 101.015625 -48.953125 L 100.546875 -48.953125 C 100.859375 -49.585938 101.015625 -49.988281 101.015625 -50.15625 L 103.421875 -50.15625 L 103.65625 -51.109375 C 103.65625 -52.546875 103.097656 -53.828125 101.984375 -54.953125 L 100.0625 -54.953125 C 98.625 -56.390625 96.0625 -57.585938 92.375 -58.546875 L 91.65625 -58.546875 C 90.21875 -59.023438 88.539062 -59.460938 86.625 -59.859375 C 84.707031 -60.265625 82.46875 -60.628906 79.90625 -60.953125 L 78.46875 -60.953125 L 68.625 -62.390625 C 67.507812 -62.546875 66.429688 -62.703125 65.390625 -62.859375 C 64.347656 -63.023438 63.265625 -63.1875 62.140625 -63.34375 C 55.585938 -64.46875 49.269531 -66.066406 43.1875 -68.140625 L 38.875 -68.140625 C 36.632812 -68.941406 34.554688 -69.742188 32.640625 -70.546875 L 29.28125 -70.546875 C 28.476562 -70.867188 27.675781 -71.226562 26.875 -71.625 C 26.070312 -72.019531 25.269531 -72.460938 24.46875 -72.953125 L 3.59375 -72.953125 C 2.476562 -73.585938 1.441406 -74.179688 0.484375 -74.734375 C -0.472656 -75.296875 -1.4375 -75.898438 -2.40625 -76.546875 L 42.234375 -76.546875 C 41.429688 -77.179688 40.671875 -77.78125 39.953125 -78.34375 C 39.234375 -78.90625 38.472656 -79.503906 37.671875 -80.140625 L -10.078125 -80.140625 C -10.554688 -80.460938 -10.992188 -80.863281 -11.390625 -81.34375 C -11.796875 -81.820312 -12.160156 -82.222656 -12.484375 -82.546875 L 0 -82.546875 C -1.4375 -84.140625 -2.796875 -85.738281 -4.078125 -87.34375 L -0.484375 -87.34375 L -1.921875 -89.75 L -24.953125 -89.75 C -25.109375 -90.0625 -25.265625 -90.296875 -25.421875 -90.453125 C -25.585938 -90.617188 -25.671875 -90.78125 -25.671875 -90.9375 L 29.03125 -90.9375 C 28.707031 -91.582031 28.382812 -92.179688 28.0625 -92.734375 C 27.75 -93.296875 27.429688 -93.898438 27.109375 -94.546875 L -14.875 -94.546875 L -16.3125 -98.140625 L 17.515625 -98.140625 L 17.03125 -99.34375 L 6.953125 -99.34375 L 6.484375 -100.546875 L 11.28125 -100.546875 C 11.28125 -100.859375 11.238281 -101.09375 11.15625 -101.25 C 11.070312 -101.414062 11.03125 -101.578125 11.03125 -101.734375 L 10.078125 -101.734375 L 9.359375 -104.140625 L 7.921875 -104.140625 L 7.671875 -106.546875 L 7.203125 -106.546875 L 7.203125 -107.734375 L -0.484375 -107.734375 C -0.640625 -108.054688 -0.71875 -108.457031 -0.71875 -108.9375 C -0.71875 -109.414062 -0.71875 -109.816406 -0.71875 -110.140625 L -7.671875 -110.140625 L -7.921875 -112.53125 L 19.4375 -112.53125 C 19.28125 -112.851562 19.203125 -113.253906 19.203125 -113.734375 C 19.203125 -114.210938 19.203125 -114.613281 19.203125 -114.9375 L 23.03125 -114.9375 L 23.03125 -115.171875 C 23.03125 -115.972656 23.03125 -116.773438 23.03125 -117.578125 C 23.03125 -118.378906 23.113281 -119.097656 23.28125 -119.734375 L 12.953125 -119.734375 C 13.117188 -120.378906 13.203125 -120.976562 13.203125 -121.53125 C 13.203125 -122.09375 13.28125 -122.691406 13.4375 -123.328125 L 30.234375 -123.328125 C 30.234375 -123.648438 30.269531 -123.890625 30.34375 -124.046875 C 30.425781 -124.210938 30.46875 -124.375 30.46875 -124.53125 L 13.4375 -124.53125 C 13.757812 -125.488281 13.921875 -126.289062 13.921875 -126.9375 L 11.28125 -126.9375 L 12 -129.328125 L 7.921875 -129.328125 C 8.398438 -131.085938 8.957031 -132.691406 9.59375 -134.140625 L 11.515625 -134.140625 L 12.484375 -136.53125 L 15.109375 -136.53125 L 17.28125 -140.125 L 14.875 -140.125 C 15.351562 -140.769531 15.789062 -141.367188 16.1875 -141.921875 C 16.59375 -142.484375 16.957031 -143.085938 17.28125 -143.734375 L 15.359375 -143.734375 L 18.234375 -147.328125 L 23.28125 -147.328125 C 23.4375 -147.648438 23.59375 -147.890625 23.75 -148.046875 C 23.914062 -148.210938 24.078125 -148.375 24.234375 -148.53125 L 17.515625 -148.53125 C 18.148438 -149.164062 18.785156 -149.765625 19.421875 -150.328125 C 20.066406 -150.890625 20.710938 -151.488281 21.359375 -152.125 L 25.1875 -152.125 C 26.15625 -152.925781 27.117188 -153.765625 28.078125 -154.640625 C 29.035156 -155.523438 30.070312 -156.285156 31.1875 -156.921875 L 35.515625 -156.921875 C 36.472656 -157.566406 37.429688 -158.164062 38.390625 -158.71875 C 39.347656 -159.28125 40.390625 -159.882812 41.515625 -160.53125 L 40.796875 -160.53125 C 41.109375 -160.851562 41.503906 -161.09375 41.984375 -161.25 C 42.472656 -161.40625 42.875 -161.566406 43.1875 -161.734375 L 39.828125 -161.734375 C 40.148438 -162.046875 40.550781 -162.28125 41.03125 -162.4375 C 41.507812 -162.601562 41.988281 -162.765625 42.46875 -162.921875 L 40.078125 -162.921875 C 42.316406 -163.890625 44.675781 -164.769531 47.15625 -165.5625 C 49.632812 -166.363281 52.148438 -167.085938 54.703125 -167.734375 L 58.3125 -167.734375 C 61.988281 -168.523438 65.863281 -169.160156 69.9375 -169.640625 C 74.019531 -170.117188 78.300781 -170.359375 82.78125 -170.359375 C 91.257812 -170.359375 99.257812 -169.484375 106.78125 -167.734375 L 103.421875 -167.734375 C 108.535156 -166.609375 113.492188 -165.003906 118.296875 -162.921875 L 120.453125 -162.921875 C 120.929688 -162.765625 121.410156 -162.601562 121.890625 -162.4375 C 122.367188 -162.28125 122.847656 -162.046875 123.328125 -161.734375 L 126.6875 -161.734375 C 127.007812 -161.566406 127.410156 -161.40625 127.890625 -161.25 C 128.367188 -161.09375 128.769531 -160.851562 129.09375 -160.53125 L 129.8125 -160.53125 C 130.9375 -159.882812 132.015625 -159.28125 133.046875 -158.71875 C 134.085938 -158.164062 135.085938 -157.566406 136.046875 -156.921875 L 131.96875 -156.921875 C 133.25 -156.285156 134.410156 -155.523438 135.453125 -154.640625 C 136.492188 -153.765625 137.492188 -152.925781 138.453125 -152.125 L 134.859375 -152.125 L 138.6875 -148.53125 L 145.40625 -148.53125 L 146.609375 -147.328125 L 141.578125 -147.328125 C 142.210938 -146.691406 142.8125 -146.09375 143.375 -145.53125 C 143.9375 -144.96875 144.457031 -144.367188 144.9375 -143.734375 L 146.84375 -143.734375 L 149.734375 -140.125 L 151.890625 -140.125 L 154.046875 -136.53125 L 151.40625 -136.53125 C 151.882812 -135.726562 152.285156 -134.929688 152.609375 -134.140625 L 150.6875 -134.140625 C 151.164062 -133.335938 151.566406 -132.535156 151.890625 -131.734375 C 152.210938 -130.929688 152.53125 -130.128906 152.84375 -129.328125 L 156.921875 -129.328125 C 157.242188 -128.367188 157.40625 -127.570312 157.40625 -126.9375 L 160.28125 -126.9375 C 160.445312 -126.613281 160.53125 -126.210938 160.53125 -125.734375 C 160.53125 -125.253906 160.609375 -124.851562 160.765625 -124.53125 L 177.8125 -124.53125 L 177.8125 -123.328125 L 162.453125 -123.328125 C 162.609375 -122.691406 162.6875 -121.816406 162.6875 -120.703125 L 162.6875 -119.734375 L 153.8125 -119.734375 C 153.164062 -116.859375 151.566406 -115.421875 149.015625 -115.421875 L 101.015625 -115.421875 C 98.773438 -115.421875 96.972656 -115.738281 95.609375 -116.375 C 94.253906 -117.019531 92.859375 -117.976562 91.421875 -119.25 L 90.703125 -119.734375 L 99.578125 -119.734375 C 98.773438 -120.378906 97.65625 -121.0625 96.21875 -121.78125 C 94.78125 -122.5 92.941406 -123.015625 90.703125 -123.328125 L 82.0625 -123.328125 C 78.707031 -122.847656 76.390625 -121.648438 75.109375 -119.734375 L 85.421875 -119.734375 C 84.941406 -118.773438 84.703125 -117.816406 84.703125 -116.859375 C 84.703125 -116.054688 84.78125 -115.414062 84.9375 -114.9375 L 81.34375 -114.9375 C 81.5 -114.132812 82.140625 -113.332031 83.265625 -112.53125 L 56.15625 -112.53125 C 57.113281 -111.738281 58.789062 -110.941406 61.1875 -110.140625 L 68.140625 -110.140625 C 69.421875 -109.660156 70.976562 -109.21875 72.8125 -108.8125 C 74.65625 -108.414062 76.617188 -108.054688 78.703125 -107.734375 L 86.390625 -107.734375 C 87.660156 -107.578125 89.015625 -107.414062 90.453125 -107.25 C 91.898438 -107.09375 93.421875 -106.859375 95.015625 -106.546875 L 95.265625 -106.546875 C 97.984375 -106.222656 100.617188 -105.859375 103.171875 -105.453125 C 105.734375 -105.054688 108.132812 -104.617188 110.375 -104.140625 L 111.8125 -104.140625 C 113.738281 -103.816406 115.539062 -103.453125 117.21875 -103.046875 C 118.894531 -102.648438 120.535156 -102.210938 122.140625 -101.734375 L 123.09375 -101.734375 C 123.894531 -101.578125 124.613281 -101.414062 125.25 -101.25 C 125.894531 -101.09375 126.535156 -100.859375 127.171875 -100.546875 L 122.609375 -100.546875 C 123.253906 -100.378906 123.851562 -100.21875 124.40625 -100.0625 C 124.96875 -99.90625 125.570312 -99.664062 126.21875 -99.34375 L 136.296875 -99.34375 C 136.773438 -99.175781 137.289062 -99.015625 137.84375 -98.859375 C 138.40625 -98.703125 138.925781 -98.460938 139.40625 -98.140625 L 105.578125 -98.140625 C 108.773438 -96.859375 111.335938 -95.660156 113.265625 -94.546875 L 155.25 -94.546875 C 156.207031 -93.898438 157.164062 -93.296875 158.125 -92.734375 C 159.082031 -92.179688 159.960938 -91.582031 160.765625 -90.9375 L 106.0625 -90.9375 C 106.382812 -90.78125 106.703125 -90.617188 107.015625 -90.453125 C 107.335938 -90.296875 107.578125 -90.0625 107.734375 -89.75 L 130.78125 -89.75 C 131.257812 -89.425781 131.738281 -89.023438 132.21875 -88.546875 C 132.695312 -88.066406 133.09375 -87.664062 133.40625 -87.34375 L 129.8125 -87.34375 C 131.414062 -85.90625 132.773438 -84.304688 133.890625 -82.546875 L 121.421875 -82.546875 C 121.734375 -82.222656 122.050781 -81.820312 122.375 -81.34375 C 122.695312 -80.863281 122.9375 -80.460938 123.09375 -80.140625 L 170.609375 -80.140625 L 172.765625 -76.546875 L 128.140625 -76.546875 C 128.453125 -75.898438 128.769531 -75.296875 129.09375 -74.734375 C 129.414062 -74.179688 129.65625 -73.585938 129.8125 -72.953125 L 150.453125 -72.953125 L 151.171875 -70.546875 L 154.53125 -70.546875 L 155.25 -68.140625 L 159.5625 -68.140625 C 159.882812 -67.503906 160.082031 -66.742188 160.15625 -65.859375 C 160.238281 -64.984375 160.363281 -64.144531 160.53125 -63.34375 L 160.765625 -60.953125 L 162.203125 -60.953125 C 162.367188 -60.628906 162.453125 -60.226562 162.453125 -59.75 C 162.453125 -59.269531 162.453125 -58.867188 162.453125 -58.546875 L 163.171875 -58.546875 L 163.171875 -54.953125 L 165.328125 -54.953125 L 165.328125 -54.234375 C 165.328125 -53.585938 165.285156 -52.941406 165.203125 -52.296875 C 165.128906 -51.660156 165.09375 -50.945312 165.09375 -50.15625 L 162.6875 -50.15625 L 162.6875 -48.953125 L 163.171875 -48.953125 C 163.171875 -48.304688 163.128906 -47.703125 163.046875 -47.140625 C 162.960938 -46.585938 162.84375 -45.988281 162.6875 -45.34375 L 163.40625 -45.34375 L 162.6875 -41.75 L 164.609375 -41.75 C 164.453125 -41.113281 164.289062 -40.515625 164.125 -39.953125 C 163.96875 -39.390625 163.726562 -38.789062 163.40625 -38.15625 L 160.765625 -38.15625 C 160.765625 -37.988281 160.722656 -37.828125 160.640625 -37.671875 C 160.566406 -37.515625 160.53125 -37.273438 160.53125 -36.953125 L 166.28125 -36.953125 L 164.84375 -33.359375 L 148.765625 -33.359375 C 148.609375 -32.710938 148.328125 -32.109375 147.921875 -31.546875 C 147.523438 -30.992188 147.164062 -30.394531 146.84375 -29.75 L 180.6875 -29.75 L 179.96875 -28.546875 L 194.609375 -28.546875 C 194.285156 -27.910156 193.921875 -27.3125 193.515625 -26.75 C 193.117188 -26.195312 192.679688 -25.597656 192.203125 -24.953125 L 162.203125 -24.953125 C 162.046875 -24.796875 161.882812 -24.632812 161.71875 -24.46875 C 161.5625 -24.3125 161.40625 -24.070312 161.25 -23.75 Z M 98.859375 -123.328125 L 106.0625 -123.328125 C 105.582031 -123.492188 105.0625 -123.578125 104.5 -123.578125 C 103.9375 -123.578125 103.335938 -123.578125 102.703125 -123.578125 C 102.054688 -123.578125 101.414062 -123.578125 100.78125 -123.578125 C 100.144531 -123.578125 99.503906 -123.492188 98.859375 -123.328125 Z M 98.859375 -123.328125"/></g></g></g><g fill-opacity="1" fill="#222222"><g transform="translate(209.949908, 486.412578)"><g><path d="M 184.046875 -12.953125 L 185.71875 -8.15625 L 181.640625 -8.15625 L 182.125 -6.953125 C 182.125 -6.796875 182.160156 -6.597656 182.234375 -6.359375 C 182.316406 -6.117188 182.359375 -5.921875 182.359375 -5.765625 L 180.921875 -5.765625 L 180.921875 -5.28125 C 180.921875 -3.363281 180.203125 -1.921875 178.765625 -0.953125 L 179 -0.953125 C 178.207031 -0.316406 177.171875 0 175.890625 0 L 131.5 0 C 130.375 0 129.453125 -0.117188 128.734375 -0.359375 C 128.015625 -0.597656 127.253906 -0.796875 126.453125 -0.953125 C 125.171875 -1.597656 124.207031 -2.359375 123.5625 -3.234375 C 122.925781 -4.117188 122.453125 -4.960938 122.140625 -5.765625 L 123.328125 -5.765625 L 123.328125 -6 L 122.859375 -6.953125 L 122.375 -8.15625 L 126.453125 -8.15625 L 124.78125 -12.953125 L 120.21875 -12.953125 L 119.5 -15.359375 L 129.328125 -15.359375 L 127.65625 -20.15625 L 124.78125 -20.15625 L 124.0625 -21.828125 L 72.46875 -21.828125 L 71.984375 -20.15625 L 69.109375 -20.15625 L 67.421875 -15.359375 L 64.78125 -15.359375 L 63.828125 -12.953125 L 62.390625 -12.953125 L 60.703125 -8.15625 L 60.953125 -8.15625 L 60.46875 -6.953125 L 60.234375 -6 L 59.984375 -5.765625 L 58.78125 -5.765625 C 58.46875 -4.960938 57.988281 -4.117188 57.34375 -3.234375 C 56.707031 -2.359375 55.75 -1.597656 54.46875 -0.953125 L 61.671875 -0.953125 C 61.023438 -0.796875 60.300781 -0.597656 59.5 -0.359375 C 58.707031 -0.117188 57.75 0 56.625 0 L 12.234375 0 C 10.953125 0 9.992188 -0.316406 9.359375 -0.953125 L 2.15625 -0.953125 C 0.5625 -2.078125 -0.234375 -3.519531 -0.234375 -5.28125 L -0.234375 -5.765625 L 1.203125 -5.765625 C 1.203125 -6.242188 1.28125 -6.640625 1.4375 -6.953125 L 1.671875 -8.15625 L 1.4375 -8.15625 L 3.125 -12.953125 L 4.5625 -12.953125 L 5.515625 -15.359375 L 8.15625 -15.359375 L 9.84375 -20.15625 L 12.484375 -20.15625 L 14.15625 -24.953125 L 4.796875 -24.953125 L 5.765625 -27.359375 L 5.03125 -27.359375 L 6.234375 -30.953125 L 8.640625 -30.953125 L 9.125 -32.15625 L 3.84375 -32.15625 L 5.515625 -36.953125 L 13.671875 -36.953125 L 14.390625 -39.359375 L 6.953125 -39.359375 L 7.4375 -40.546875 L 8.640625 -40.546875 L 10.3125 -45.34375 L 9.59375 -45.34375 L 10.796875 -48.953125 L 11.75 -48.953125 L 13.4375 -53.75 L 16.5625 -53.75 L 17.75 -57.34375 L 18.234375 -58.546875 L 30.234375 -58.546875 L 30.71875 -59.75 L 30 -59.75 L 31.1875 -63.34375 L 17.75 -63.34375 L 19.4375 -68.140625 L 23.75 -68.140625 L 24.234375 -69.34375 L 21.59375 -69.34375 L 22.078125 -70.546875 L 29.75 -70.546875 L 31.4375 -75.34375 L 22.078125 -75.34375 L 23.03125 -77.75 L 26.640625 -77.75 L 28.3125 -82.546875 L 26.15625 -82.546875 L 27.359375 -86.140625 L 30 -86.140625 L 31.671875 -90.9375 L 30.953125 -90.9375 L 31.4375 -92.140625 L 25.921875 -92.140625 L 26.875 -94.546875 L 32.15625 -94.546875 L 33.359375 -98.140625 L 30.953125 -98.140625 L 31.1875 -99.34375 L 35.515625 -99.34375 L 37.1875 -104.140625 L 31.90625 -104.140625 L 33.109375 -107.734375 L 30.46875 -107.734375 L 31.1875 -110.140625 L 14.640625 -110.140625 L 15.359375 -112.53125 L 12.234375 -112.53125 L 13.921875 -117.34375 L 10.796875 -117.34375 L 12.234375 -120.9375 L 21.59375 -120.9375 L 23.28125 -125.734375 L 47.265625 -125.734375 L 48.46875 -129.328125 L 36.953125 -129.328125 L 37.90625 -131.734375 L 46.796875 -131.734375 L 48.46875 -136.53125 L 40.546875 -136.53125 L 41.75 -140.125 L 46.796875 -140.125 L 48.46875 -144.9375 L 47.75 -144.9375 L 49.4375 -149.734375 L 42.71875 -149.734375 L 42.953125 -150.9375 L 65.984375 -150.9375 L 67.671875 -155.734375 L 66.953125 -155.734375 L 67.421875 -156.921875 L 59.03125 -156.921875 L 59.984375 -160.046875 L 60.703125 -161.734375 L 63.109375 -161.734375 L 64.546875 -164.125 L 63.828125 -164.125 C 64.628906 -165.25 65.75 -166.171875 67.1875 -166.890625 C 68.625 -167.609375 70.382812 -167.96875 72.46875 -167.96875 L 124.53125 -167.96875 C 126.613281 -167.96875 128.375 -167.609375 129.8125 -166.890625 C 131.25 -166.171875 132.367188 -165.25 133.171875 -164.125 L 134.140625 -164.125 L 135.578125 -161.734375 L 133.171875 -161.734375 C 133.492188 -161.085938 133.65625 -160.523438 133.65625 -160.046875 L 134.859375 -156.921875 L 143.25 -156.921875 L 143.484375 -155.734375 L 144.21875 -155.734375 L 145.890625 -150.9375 L 123.09375 -150.9375 L 123.578125 -149.734375 L 130.296875 -149.734375 L 131.96875 -144.9375 L 132.6875 -144.9375 L 134.375 -140.125 L 129.328125 -140.125 L 130.53125 -136.53125 L 138.453125 -136.53125 L 140.125 -131.734375 L 131.25 -131.734375 L 132.21875 -129.328125 L 143.734375 -129.328125 L 144.9375 -125.734375 L 120.9375 -125.734375 L 122.609375 -120.9375 L 113.265625 -120.9375 L 114.453125 -117.34375 L 117.34375 -117.34375 L 119.015625 -112.53125 L 109.65625 -112.53125 L 110.625 -110.140625 L 148.765625 -110.140625 L 149.484375 -107.734375 L 147.578125 -107.734375 L 148.765625 -104.140625 L 143.96875 -104.140625 L 145.65625 -99.34375 L 139.890625 -99.34375 L 140.125 -98.140625 L 148.765625 -98.140625 L 149.96875 -94.546875 L 150.203125 -94.546875 L 151.171875 -92.140625 L 143.25 -92.140625 L 143.734375 -90.9375 L 151.40625 -90.9375 L 153.09375 -86.140625 L 155.734375 -86.140625 L 156.921875 -82.546875 L 156.203125 -82.546875 L 157.890625 -77.75 L 161.734375 -77.75 L 162.6875 -75.34375 L 155.734375 -75.34375 L 157.40625 -70.546875 L 162.203125 -70.546875 L 162.453125 -69.34375 L 161.25 -69.34375 L 161.734375 -68.140625 L 157.40625 -68.140625 L 158.84375 -63.34375 L 172.53125 -63.34375 L 173.71875 -59.75 L 174.453125 -59.75 L 174.921875 -58.546875 L 162.6875 -58.546875 L 163.171875 -57.34375 L 163.40625 -57.34375 L 164.609375 -53.75 L 161.484375 -53.75 L 163.171875 -48.953125 L 161.96875 -48.953125 L 163.40625 -45.34375 L 164.125 -45.34375 L 165.8125 -40.546875 L 164.609375 -40.546875 L 165.09375 -39.359375 L 172.53125 -39.359375 L 173.484375 -36.953125 L 165.09375 -36.953125 L 166.765625 -32.15625 L 172.046875 -32.15625 L 172.53125 -30.953125 L 170.125 -30.953125 L 171.5625 -27.359375 L 172.046875 -27.359375 L 173 -24.953125 L 182.359375 -24.953125 L 184.046875 -20.15625 L 186.921875 -20.15625 L 188.609375 -15.359375 L 178.765625 -15.359375 L 179.484375 -12.953125 Z M 83.75 -107.734375 L 86.625 -107.734375 L 85.421875 -104.140625 L 95.265625 -104.140625 L 94.0625 -107.734375 L 95.984375 -107.734375 L 95.265625 -110.140625 L 84.46875 -110.140625 Z M 91.65625 -99.34375 L 90.46875 -103.421875 L 89.265625 -99.34375 Z M 77.265625 -70.546875 L 76.78125 -69.34375 L 79.421875 -69.34375 L 79.1875 -68.625 L 106.296875 -68.625 L 106.0625 -69.34375 L 107.265625 -69.34375 L 107.015625 -70.546875 L 102.21875 -70.546875 L 100.78125 -75.34375 L 107.734375 -75.34375 L 107.015625 -77.75 L 102.9375 -77.75 L 101.5 -82.546875 L 102.21875 -82.546875 L 101.265625 -86.140625 L 98.625 -86.140625 L 97.1875 -90.9375 L 89.5 -90.9375 L 89.015625 -92.140625 L 96.9375 -92.140625 L 96.21875 -94.546875 L 95.984375 -94.546875 L 94.78125 -98.140625 L 87.109375 -98.140625 L 86.140625 -94.546875 L 80.859375 -94.546875 L 80.140625 -92.140625 L 85.421875 -92.140625 L 85.1875 -90.9375 L 85.90625 -90.9375 L 84.46875 -86.140625 L 81.828125 -86.140625 L 80.625 -82.546875 L 82.78125 -82.546875 L 81.34375 -77.75 L 77.75 -77.75 L 77.03125 -75.34375 L 86.390625 -75.34375 L 84.9375 -70.546875 Z M 77.265625 -70.546875"/></g></g></g><g fill-opacity="1" fill="#222222"><g transform="translate(391.111592, 486.412578)"><g><path d="M 171.5625 -146.125 L 126.9375 -146.125 L 126.9375 -141.328125 L 143.96875 -141.328125 L 143.96875 -137.734375 L 162.453125 -137.734375 L 162.453125 -134.140625 L 161.96875 -134.140625 L 161.96875 -130.53125 L 168.921875 -130.53125 L 168.921875 -125.734375 L 142.765625 -125.734375 L 142.765625 -124.53125 L 137.734375 -124.53125 L 137.734375 -122.859375 C 137.734375 -121.734375 137.492188 -120.691406 137.015625 -119.734375 L 154.046875 -119.734375 C 152.929688 -117.492188 151.09375 -116.375 148.53125 -116.375 L 108.703125 -116.375 L 108.703125 -116.140625 L 111.09375 -116.140625 L 111.09375 -111.34375 L 111.578125 -111.34375 L 111.578125 -106.546875 L 110.375 -106.546875 L 110.375 -101.734375 L 107.265625 -101.734375 L 107.265625 -98.140625 L 119.25 -98.140625 L 119.25 -95.734375 L 109.171875 -95.734375 L 109.171875 -92.140625 L 103.90625 -92.140625 L 103.90625 -87.34375 L 113.015625 -87.34375 L 113.015625 -84.9375 L 111.34375 -84.9375 L 111.34375 -80.140625 L 109.65625 -80.140625 L 109.65625 -75.34375 L 106.78125 -75.34375 L 106.78125 -70.546875 L 104.140625 -70.546875 L 104.140625 -66.953125 L 113.015625 -66.953125 L 113.015625 -63.34375 L 109.421875 -63.34375 L 109.421875 -58.546875 L 110.859375 -58.546875 L 110.859375 -57.34375 L 112.53125 -57.34375 L 112.53125 -54.953125 L 124.53125 -54.953125 L 124.53125 -51.34375 L 116.375 -51.34375 L 116.375 -46.546875 L 119.96875 -46.546875 L 119.96875 -41.75 L 109.90625 -41.75 L 109.90625 -36.953125 L 113.984375 -36.953125 L 113.984375 -34.546875 L 115.65625 -34.546875 L 115.65625 -30.953125 L 119.5 -30.953125 L 119.5 -26.15625 L 118.0625 -26.15625 L 118.0625 -22.5625 L 111.8125 -22.5625 L 111.8125 -18.953125 L 111.09375 -18.953125 L 111.09375 -16.5625 L 110.859375 -16.5625 L 110.859375 -12.953125 L 113.5 -12.953125 L 113.5 -9.359375 L 111.34375 -9.359375 L 111.34375 -6.484375 C 111.34375 -5.679688 111.257812 -5.039062 111.09375 -4.5625 L 108.703125 -4.5625 C 108.222656 -2.957031 107.34375 -1.753906 106.0625 -0.953125 L 106.546875 -0.953125 C 105.742188 -0.316406 104.625 0 103.1875 0 L 55.1875 0 C 53.90625 0 52.707031 -0.316406 51.59375 -0.953125 L 51.109375 -0.953125 C 49.992188 -1.753906 49.113281 -2.957031 48.46875 -4.5625 L 50.625 -4.5625 C 50.46875 -5.039062 50.390625 -5.679688 50.390625 -6.484375 L 50.390625 -9.359375 L 52.546875 -9.359375 L 52.546875 -12.953125 L 49.90625 -12.953125 L 49.90625 -16.5625 L 50.15625 -16.5625 L 50.15625 -18.953125 L 50.875 -18.953125 L 50.875 -22.5625 L 57.109375 -22.5625 L 57.109375 -26.15625 L 58.546875 -26.15625 L 58.546875 -30.953125 L 54.703125 -30.953125 L 54.703125 -34.546875 L 53.03125 -34.546875 L 53.03125 -36.953125 L 48.953125 -36.953125 L 48.953125 -41.75 L 59.03125 -41.75 L 59.03125 -46.546875 L 55.421875 -46.546875 L 55.421875 -51.34375 L 63.59375 -51.34375 L 63.59375 -54.953125 L 51.59375 -54.953125 L 51.59375 -57.34375 L 49.90625 -57.34375 L 49.90625 -58.546875 L 48.46875 -58.546875 L 48.46875 -63.34375 L 52.0625 -63.34375 L 52.0625 -66.953125 L 43.1875 -66.953125 L 43.1875 -70.546875 L 45.828125 -70.546875 L 45.828125 -75.34375 L 48.703125 -75.34375 L 48.703125 -80.140625 L 50.390625 -80.140625 L 50.390625 -84.9375 L 52.0625 -84.9375 L 52.0625 -87.34375 L 42.953125 -87.34375 L 42.953125 -92.140625 L 48.234375 -92.140625 L 48.234375 -95.734375 L 58.3125 -95.734375 L 58.3125 -98.140625 L 46.3125 -98.140625 L 46.3125 -101.734375 L 49.4375 -101.734375 L 49.4375 -106.546875 L 50.625 -106.546875 L 50.625 -111.34375 L 50.15625 -111.34375 L 50.15625 -116.140625 L 47.75 -116.140625 L 47.75 -116.375 L 7.921875 -116.375 C 5.515625 -116.375 3.59375 -117.492188 2.15625 -119.734375 L -14.875 -119.734375 C -15.03125 -120.210938 -15.226562 -120.691406 -15.46875 -121.171875 C -15.71875 -121.648438 -15.84375 -122.210938 -15.84375 -122.859375 L -15.84375 -124.53125 L -10.796875 -124.53125 L -10.796875 -125.734375 L 15.359375 -125.734375 L 15.359375 -130.53125 L 8.390625 -130.53125 L 8.390625 -134.140625 L 8.875 -134.140625 L 8.875 -137.734375 L -9.59375 -137.734375 L -9.59375 -141.328125 L -26.640625 -141.328125 L -26.640625 -146.125 L 18 -146.125 L 18 -149.734375 L -6.953125 -149.734375 L -6.953125 -154.53125 L -2.15625 -154.53125 L -2.15625 -159.328125 L 4.078125 -159.328125 L 4.078125 -160.53125 L 7.671875 -160.53125 L 7.671875 -161.484375 C 7.671875 -163.085938 8.15625 -164.367188 9.125 -165.328125 L 3.84375 -165.328125 C 5.125 -167.085938 6.882812 -167.96875 9.125 -167.96875 L 149.734375 -167.96875 C 151.972656 -167.96875 153.734375 -167.085938 155.015625 -165.328125 L 160.046875 -165.328125 C 160.847656 -164.203125 161.25 -162.921875 161.25 -161.484375 L 161.25 -160.53125 L 157.65625 -160.53125 L 157.65625 -159.328125 L 151.40625 -159.328125 L 151.40625 -154.53125 L 146.609375 -154.53125 L 146.609375 -149.734375 L 171.5625 -149.734375 Z M 171.5625 -146.125"/></g></g></g><g fill-opacity="1" fill="#222222"><g transform="translate(552.837376, 486.412578)"><g><path d="M 156.921875 -0.953125 C 155.804688 -0.316406 154.609375 0 153.328125 0 L 16.3125 0 C 14.875 0 13.753906 -0.316406 12.953125 -0.953125 L 11.515625 -0.953125 C 11.035156 -1.273438 10.59375 -1.632812 10.1875 -2.03125 C 9.789062 -2.4375 9.4375 -2.878906 9.125 -3.359375 L 7.203125 -3.359375 L 6.71875 -4.5625 L 6.234375 -4.5625 C 6.234375 -4.875 6.191406 -5.191406 6.109375 -5.515625 C 6.035156 -5.835938 6 -6.160156 6 -6.484375 L 6 -11.75 L 9.59375 -11.75 L 9.59375 -12.953125 L 7.921875 -12.953125 L 7.921875 -17.75 L 7.203125 -17.75 L 7.203125 -18.953125 L 8.875 -18.953125 L 8.875 -23.75 L 8.390625 -23.75 L 8.390625 -28.546875 L 7.4375 -28.546875 L 7.4375 -30.953125 L 8.390625 -30.953125 L 8.390625 -36.953125 L 11.515625 -36.953125 L 11.515625 -40.546875 L 11.28125 -40.546875 L 11.28125 -41.03125 C 11.28125 -41.664062 11.316406 -42.222656 11.390625 -42.703125 C 11.472656 -43.191406 11.59375 -43.675781 11.75 -44.15625 L 8.15625 -44.15625 C 8.3125 -44.632812 8.46875 -45.070312 8.625 -45.46875 C 8.789062 -45.875 8.957031 -46.234375 9.125 -46.546875 L 9.84375 -46.546875 C 10.15625 -47.191406 10.394531 -47.59375 10.5625 -47.75 L 6.484375 -47.75 C 6.796875 -48.070312 7.070312 -48.390625 7.3125 -48.703125 C 7.550781 -49.023438 7.753906 -49.269531 7.921875 -49.4375 L 9.84375 -51.34375 L 14.390625 -51.34375 L 16.796875 -53.75 L 14.390625 -53.75 L 18.953125 -58.546875 L 16.3125 -58.546875 L 18.71875 -60.953125 L 23.03125 -60.953125 L 25.4375 -63.34375 L 31.671875 -63.34375 L 35.03125 -66.953125 L 33.109375 -66.953125 L 35.515625 -69.34375 L 32.640625 -69.34375 L 33.828125 -70.546875 L 39.828125 -70.546875 L 40.796875 -71.75 L 34.796875 -71.75 L 38.390625 -75.34375 L 39.59375 -75.34375 L 40.796875 -76.546875 L 36 -76.546875 L 40.546875 -81.34375 L 45.34375 -81.34375 L 48.953125 -84.9375 L 53.515625 -89.75 L 50.875 -89.75 L 53.03125 -92.140625 L 57.34375 -92.140625 L 61.90625 -96.9375 L 60.46875 -96.9375 L 65.03125 -101.734375 L 67.421875 -101.734375 L 69.828125 -104.140625 L 66.703125 -104.140625 L 67.90625 -105.34375 L 67.421875 -105.34375 L 68.625 -106.546875 L 65.5 -106.546875 L 66.703125 -107.734375 L 70.546875 -107.734375 L 75.109375 -112.53125 L 71.03125 -112.53125 L 73.421875 -114.9375 L 73.671875 -114.9375 L 77.03125 -118.53125 L 78.46875 -118.53125 L 79.1875 -119.25 L 17.28125 -119.25 C 15.832031 -119.25 14.390625 -119.8125 12.953125 -120.9375 L 14.875 -120.9375 C 14.238281 -121.570312 13.679688 -122.367188 13.203125 -123.328125 L 12.71875 -123.328125 C 12.394531 -124.296875 12.234375 -125.097656 12.234375 -125.734375 L 12.234375 -128.140625 L 13.671875 -128.140625 L 13.671875 -130.53125 L 11.515625 -130.53125 L 11.515625 -135.328125 L 8.390625 -135.328125 L 8.390625 -138.9375 L 10.5625 -138.9375 L 10.5625 -143.734375 L 11.28125 -143.734375 L 11.28125 -144.9375 L 4.3125 -144.9375 L 4.3125 -149.734375 L 10.5625 -149.734375 L 10.5625 -154.53125 L 10.796875 -154.53125 L 10.796875 -159.328125 L 7.203125 -159.328125 L 7.203125 -161.734375 L 20.640625 -161.734375 C 20.640625 -162.367188 20.796875 -163.164062 21.109375 -164.125 L 17.28125 -164.125 C 17.4375 -164.601562 17.671875 -165.039062 17.984375 -165.4375 C 18.304688 -165.84375 18.628906 -166.207031 18.953125 -166.53125 L 13.921875 -166.53125 C 15.203125 -167.488281 16.5625 -167.96875 18 -167.96875 L 149.484375 -167.96875 C 151.242188 -167.96875 152.601562 -167.488281 153.5625 -166.53125 L 158.84375 -166.53125 C 159.488281 -165.882812 160.050781 -165.082031 160.53125 -164.125 L 164.609375 -164.125 C 164.929688 -163.164062 165.09375 -162.367188 165.09375 -161.734375 L 151.65625 -161.734375 L 151.65625 -159.328125 L 155.25 -159.328125 L 155.25 -154.53125 L 155.015625 -154.53125 L 155.015625 -149.734375 L 148.765625 -149.734375 L 148.765625 -144.9375 L 155.734375 -144.9375 L 155.734375 -143.734375 L 155.015625 -143.734375 L 155.015625 -138.9375 L 152.84375 -138.9375 L 152.84375 -135.328125 L 155.96875 -135.328125 L 155.96875 -130.53125 L 158.125 -130.53125 L 158.125 -128.140625 L 156.6875 -128.140625 L 156.6875 -127.421875 C 156.6875 -125.972656 156.445312 -124.609375 155.96875 -123.328125 L 156.6875 -123.328125 C 156.53125 -122.847656 156.332031 -122.410156 156.09375 -122.015625 C 155.851562 -121.617188 155.570312 -121.257812 155.25 -120.9375 L 153.328125 -120.9375 C 153.171875 -120.613281 152.769531 -120.132812 152.125 -119.5 L 151.171875 -118.53125 L 149.734375 -118.53125 L 146.609375 -114.9375 L 146.375 -114.9375 L 144.21875 -112.53125 L 148.296875 -112.53125 L 143.734375 -107.734375 L 140.125 -107.734375 L 138.9375 -106.546875 L 142.046875 -106.546875 L 140.859375 -105.34375 L 141.328125 -105.34375 L 140.375 -104.140625 L 143.484375 -104.140625 L 141.328125 -101.734375 L 138.9375 -101.734375 L 134.609375 -96.9375 L 136.046875 -96.9375 L 131.734375 -92.140625 L 127.421875 -92.140625 L 125.25 -89.75 L 127.890625 -89.75 L 123.578125 -84.9375 L 120.21875 -81.34375 L 115.65625 -81.34375 L 111.34375 -76.546875 L 115.890625 -76.546875 L 114.9375 -75.34375 L 113.5 -75.34375 L 110.375 -71.75 L 116.375 -71.75 L 115.171875 -70.546875 L 109.421875 -70.546875 L 108.21875 -69.34375 L 111.09375 -69.34375 L 108.9375 -66.953125 L 110.859375 -66.953125 L 107.5 -63.34375 L 101.265625 -63.34375 L 99.09375 -60.953125 L 94.78125 -60.953125 L 92.625 -58.546875 L 95.265625 -58.546875 L 90.9375 -53.75 L 93.34375 -53.75 L 91.1875 -51.34375 L 86.390625 -51.34375 L 84.46875 -49.1875 L 147.8125 -49.1875 C 149.570312 -49.1875 150.929688 -48.707031 151.890625 -47.75 L 155.96875 -47.75 C 156.445312 -47.425781 156.847656 -47.023438 157.171875 -46.546875 L 156.6875 -46.546875 C 157.007812 -45.910156 157.332031 -45.113281 157.65625 -44.15625 L 161.25 -44.15625 L 161.25 -40.546875 L 161.484375 -40.546875 L 161.484375 -36.953125 L 158.375 -36.953125 L 158.375 -30.953125 L 157.40625 -30.953125 L 157.40625 -28.546875 L 158.375 -28.546875 L 158.375 -23.75 L 158.84375 -23.75 L 158.84375 -18.953125 L 157.171875 -18.953125 L 157.171875 -17.75 L 157.890625 -17.75 L 157.890625 -12.953125 L 159.5625 -12.953125 L 159.5625 -11.75 L 155.96875 -11.75 L 155.96875 -6.484375 C 155.96875 -5.679688 155.890625 -5.039062 155.734375 -4.5625 L 156.203125 -4.5625 L 155.734375 -3.359375 L 157.65625 -3.359375 C 157.332031 -2.878906 156.96875 -2.4375 156.5625 -2.03125 C 156.164062 -1.632812 155.726562 -1.273438 155.25 -0.953125 Z M 156.921875 -0.953125"/></g></g></g><g fill-opacity="1" fill="#222222"><g transform="translate(719.122174, 486.412578)"><g><path d="M 156.921875 -0.953125 C 155.804688 -0.316406 154.609375 0 153.328125 0 L 16.3125 0 C 14.875 0 13.753906 -0.316406 12.953125 -0.953125 L 11.515625 -0.953125 C 11.035156 -1.273438 10.59375 -1.632812 10.1875 -2.03125 C 9.789062 -2.4375 9.4375 -2.878906 9.125 -3.359375 L 7.203125 -3.359375 L 6.71875 -4.5625 L 6.234375 -4.5625 C 6.234375 -4.875 6.191406 -5.191406 6.109375 -5.515625 C 6.035156 -5.835938 6 -6.160156 6 -6.484375 L 6 -11.75 L 9.59375 -11.75 L 9.59375 -12.953125 L 7.921875 -12.953125 L 7.921875 -17.75 L 7.203125 -17.75 L 7.203125 -18.953125 L 8.875 -18.953125 L 8.875 -23.75 L 8.390625 -23.75 L 8.390625 -28.546875 L 7.4375 -28.546875 L 7.4375 -30.953125 L 8.390625 -30.953125 L 8.390625 -36.953125 L 11.515625 -36.953125 L 11.515625 -40.546875 L 11.28125 -40.546875 L 11.28125 -41.03125 C 11.28125 -41.664062 11.316406 -42.222656 11.390625 -42.703125 C 11.472656 -43.191406 11.59375 -43.675781 11.75 -44.15625 L 8.15625 -44.15625 C 8.3125 -44.632812 8.46875 -45.070312 8.625 -45.46875 C 8.789062 -45.875 8.957031 -46.234375 9.125 -46.546875 L 9.84375 -46.546875 C 10.15625 -47.191406 10.394531 -47.59375 10.5625 -47.75 L 6.484375 -47.75 C 6.796875 -48.070312 7.070312 -48.390625 7.3125 -48.703125 C 7.550781 -49.023438 7.753906 -49.269531 7.921875 -49.4375 L 9.84375 -51.34375 L 14.390625 -51.34375 L 16.796875 -53.75 L 14.390625 -53.75 L 18.953125 -58.546875 L 16.3125 -58.546875 L 18.71875 -60.953125 L 23.03125 -60.953125 L 25.4375 -63.34375 L 31.671875 -63.34375 L 35.03125 -66.953125 L 33.109375 -66.953125 L 35.515625 -69.34375 L 32.640625 -69.34375 L 33.828125 -70.546875 L 39.828125 -70.546875 L 40.796875 -71.75 L 34.796875 -71.75 L 38.390625 -75.34375 L 39.59375 -75.34375 L 40.796875 -76.546875 L 36 -76.546875 L 40.546875 -81.34375 L 45.34375 -81.34375 L 48.953125 -84.9375 L 53.515625 -89.75 L 50.875 -89.75 L 53.03125 -92.140625 L 57.34375 -92.140625 L 61.90625 -96.9375 L 60.46875 -96.9375 L 65.03125 -101.734375 L 67.421875 -101.734375 L 69.828125 -104.140625 L 66.703125 -104.140625 L 67.90625 -105.34375 L 67.421875 -105.34375 L 68.625 -106.546875 L 65.5 -106.546875 L 66.703125 -107.734375 L 70.546875 -107.734375 L 75.109375 -112.53125 L 71.03125 -112.53125 L 73.421875 -114.9375 L 73.671875 -114.9375 L 77.03125 -118.53125 L 78.46875 -118.53125 L 79.1875 -119.25 L 17.28125 -119.25 C 15.832031 -119.25 14.390625 -119.8125 12.953125 -120.9375 L 14.875 -120.9375 C 14.238281 -121.570312 13.679688 -122.367188 13.203125 -123.328125 L 12.71875 -123.328125 C 12.394531 -124.296875 12.234375 -125.097656 12.234375 -125.734375 L 12.234375 -128.140625 L 13.671875 -128.140625 L 13.671875 -130.53125 L 11.515625 -130.53125 L 11.515625 -135.328125 L 8.390625 -135.328125 L 8.390625 -138.9375 L 10.5625 -138.9375 L 10.5625 -143.734375 L 11.28125 -143.734375 L 11.28125 -144.9375 L 4.3125 -144.9375 L 4.3125 -149.734375 L 10.5625 -149.734375 L 10.5625 -154.53125 L 10.796875 -154.53125 L 10.796875 -159.328125 L 7.203125 -159.328125 L 7.203125 -161.734375 L 20.640625 -161.734375 C 20.640625 -162.367188 20.796875 -163.164062 21.109375 -164.125 L 17.28125 -164.125 C 17.4375 -164.601562 17.671875 -165.039062 17.984375 -165.4375 C 18.304688 -165.84375 18.628906 -166.207031 18.953125 -166.53125 L 13.921875 -166.53125 C 15.203125 -167.488281 16.5625 -167.96875 18 -167.96875 L 149.484375 -167.96875 C 151.242188 -167.96875 152.601562 -167.488281 153.5625 -166.53125 L 158.84375 -166.53125 C 159.488281 -165.882812 160.050781 -165.082031 160.53125 -164.125 L 164.609375 -164.125 C 164.929688 -163.164062 165.09375 -162.367188 165.09375 -161.734375 L 151.65625 -161.734375 L 151.65625 -159.328125 L 155.25 -159.328125 L 155.25 -154.53125 L 155.015625 -154.53125 L 155.015625 -149.734375 L 148.765625 -149.734375 L 148.765625 -144.9375 L 155.734375 -144.9375 L 155.734375 -143.734375 L 155.015625 -143.734375 L 155.015625 -138.9375 L 152.84375 -138.9375 L 152.84375 -135.328125 L 155.96875 -135.328125 L 155.96875 -130.53125 L 158.125 -130.53125 L 158.125 -128.140625 L 156.6875 -128.140625 L 156.6875 -127.421875 C 156.6875 -125.972656 156.445312 -124.609375 155.96875 -123.328125 L 156.6875 -123.328125 C 156.53125 -122.847656 156.332031 -122.410156 156.09375 -122.015625 C 155.851562 -121.617188 155.570312 -121.257812 155.25 -120.9375 L 153.328125 -120.9375 C 153.171875 -120.613281 152.769531 -120.132812 152.125 -119.5 L 151.171875 -118.53125 L 149.734375 -118.53125 L 146.609375 -114.9375 L 146.375 -114.9375 L 144.21875 -112.53125 L 148.296875 -112.53125 L 143.734375 -107.734375 L 140.125 -107.734375 L 138.9375 -106.546875 L 142.046875 -106.546875 L 140.859375 -105.34375 L 141.328125 -105.34375 L 140.375 -104.140625 L 143.484375 -104.140625 L 141.328125 -101.734375 L 138.9375 -101.734375 L 134.609375 -96.9375 L 136.046875 -96.9375 L 131.734375 -92.140625 L 127.421875 -92.140625 L 125.25 -89.75 L 127.890625 -89.75 L 123.578125 -84.9375 L 120.21875 -81.34375 L 115.65625 -81.34375 L 111.34375 -76.546875 L 115.890625 -76.546875 L 114.9375 -75.34375 L 113.5 -75.34375 L 110.375 -71.75 L 116.375 -71.75 L 115.171875 -70.546875 L 109.421875 -70.546875 L 108.21875 -69.34375 L 111.09375 -69.34375 L 108.9375 -66.953125 L 110.859375 -66.953125 L 107.5 -63.34375 L 101.265625 -63.34375 L 99.09375 -60.953125 L 94.78125 -60.953125 L 92.625 -58.546875 L 95.265625 -58.546875 L 90.9375 -53.75 L 93.34375 -53.75 L 91.1875 -51.34375 L 86.390625 -51.34375 L 84.46875 -49.1875 L 147.8125 -49.1875 C 149.570312 -49.1875 150.929688 -48.707031 151.890625 -47.75 L 155.96875 -47.75 C 156.445312 -47.425781 156.847656 -47.023438 157.171875 -46.546875 L 156.6875 -46.546875 C 157.007812 -45.910156 157.332031 -45.113281 157.65625 -44.15625 L 161.25 -44.15625 L 161.25 -40.546875 L 161.484375 -40.546875 L 161.484375 -36.953125 L 158.375 -36.953125 L 158.375 -30.953125 L 157.40625 -30.953125 L 157.40625 -28.546875 L 158.375 -28.546875 L 158.375 -23.75 L 158.84375 -23.75 L 158.84375 -18.953125 L 157.171875 -18.953125 L 157.171875 -17.75 L 157.890625 -17.75 L 157.890625 -12.953125 L 159.5625 -12.953125 L 159.5625 -11.75 L 155.96875 -11.75 L 155.96875 -6.484375 C 155.96875 -5.679688 155.890625 -5.039062 155.734375 -4.5625 L 156.203125 -4.5625 L 155.734375 -3.359375 L 157.65625 -3.359375 C 157.332031 -2.878906 156.96875 -2.4375 156.5625 -2.03125 C 156.164062 -1.632812 155.726562 -1.273438 155.25 -0.953125 Z M 156.921875 -0.953125"/></g></g></g><g fill-opacity="1" fill="#222222"><g transform="translate(885.407007, 486.412578)"><g><path d="M 196.046875 -130.53125 C 196.359375 -129.894531 196.675781 -129.296875 197 -128.734375 C 197.320312 -128.171875 197.5625 -127.570312 197.71875 -126.9375 L 188.84375 -126.9375 C 189.164062 -126.289062 189.484375 -125.523438 189.796875 -124.640625 C 190.117188 -123.765625 190.441406 -122.929688 190.765625 -122.140625 L 153.09375 -122.140625 L 154.53125 -117.34375 L 173.96875 -117.34375 L 174.6875 -113.734375 L 172.046875 -113.734375 C 172.203125 -113.421875 172.28125 -113.019531 172.28125 -112.53125 C 172.28125 -112.050781 172.363281 -111.65625 172.53125 -111.34375 L 166.046875 -111.34375 L 166.28125 -108.9375 L 171.328125 -108.9375 C 171.328125 -108.300781 171.363281 -107.703125 171.4375 -107.140625 C 171.519531 -106.578125 171.5625 -105.976562 171.5625 -105.34375 L 180.4375 -105.34375 C 180.601562 -104.695312 180.6875 -104.132812 180.6875 -103.65625 C 180.6875 -103.175781 180.6875 -102.617188 180.6875 -101.984375 L 180.6875 -101.734375 L 158.125 -101.734375 C 158.125 -100.941406 158.164062 -100.144531 158.25 -99.34375 C 158.332031 -98.539062 158.375 -97.738281 158.375 -96.9375 L 163.40625 -96.9375 C 163.40625 -96.132812 163.441406 -95.332031 163.515625 -94.53125 C 163.597656 -93.738281 163.640625 -92.941406 163.640625 -92.140625 L 172.28125 -92.140625 L 172.28125 -90.9375 L 168.921875 -90.9375 L 168.921875 -86.140625 L 169.890625 -86.140625 L 169.890625 -82.546875 L 184.046875 -82.546875 L 184.046875 -77.75 L 170.609375 -77.75 L 170.609375 -75.34375 L 169.171875 -75.34375 C 169.171875 -75.019531 169.171875 -74.617188 169.171875 -74.140625 C 169.171875 -73.660156 169.085938 -73.265625 168.921875 -72.953125 L 164.609375 -72.953125 L 164.609375 -68.140625 L 165.09375 -68.140625 C 164.925781 -67.660156 164.84375 -67.023438 164.84375 -66.234375 L 164.84375 -65.75 L 173.71875 -65.75 C 173.71875 -65.101562 173.675781 -64.5 173.59375 -63.9375 C 173.519531 -63.382812 173.484375 -62.785156 173.484375 -62.140625 L 177.078125 -62.140625 C 177.078125 -61.347656 177.035156 -60.550781 176.953125 -59.75 C 176.878906 -58.945312 176.765625 -58.144531 176.609375 -57.34375 L 171.328125 -57.34375 C 171.171875 -57.03125 171.09375 -56.628906 171.09375 -56.140625 C 171.09375 -55.660156 171.007812 -55.265625 170.84375 -54.953125 L 142.046875 -54.953125 C 142.046875 -54.304688 141.890625 -53.503906 141.578125 -52.546875 L 166.765625 -52.546875 C 166.441406 -51.585938 166.28125 -50.789062 166.28125 -50.15625 L 169.890625 -50.15625 C 169.722656 -49.507812 169.597656 -48.90625 169.515625 -48.34375 C 169.441406 -47.789062 169.242188 -47.191406 168.921875 -46.546875 L 168.203125 -44.15625 L 161.25 -44.15625 L 160.765625 -42.953125 L 172.046875 -42.953125 C 171.722656 -42.304688 171.5625 -41.90625 171.5625 -41.75 L 164.375 -41.75 L 163.890625 -40.546875 L 163.640625 -40.546875 C 163.328125 -39.753906 163.007812 -38.957031 162.6875 -38.15625 C 162.363281 -37.351562 161.960938 -36.550781 161.484375 -35.75 L 157.890625 -35.75 L 155.25 -30.953125 L 159.328125 -30.953125 L 157.890625 -28.546875 L 158.125 -28.546875 C 157.8125 -28.234375 157.492188 -27.835938 157.171875 -27.359375 C 156.847656 -26.878906 156.523438 -26.476562 156.203125 -26.15625 L 154.53125 -26.15625 C 154.050781 -25.675781 153.726562 -25.273438 153.5625 -24.953125 C 153.082031 -24.316406 152.601562 -23.71875 152.125 -23.15625 C 151.644531 -22.59375 151.085938 -21.992188 150.453125 -21.359375 L 149.734375 -21.359375 C 148.929688 -20.554688 148.085938 -19.753906 147.203125 -18.953125 C 146.328125 -18.148438 145.410156 -17.351562 144.453125 -16.5625 L 146.609375 -16.5625 L 141.578125 -12.953125 L 141.8125 -12.953125 C 140.53125 -12.148438 139.171875 -11.347656 137.734375 -10.546875 C 136.296875 -9.753906 134.773438 -8.957031 133.171875 -8.15625 L 132.9375 -8.15625 C 131.332031 -7.351562 129.332031 -6.554688 126.9375 -5.765625 L 127.171875 -5.765625 C 123.972656 -4.640625 120.613281 -3.675781 117.09375 -2.875 C 113.570312 -2.070312 109.972656 -1.429688 106.296875 -0.953125 L 111.34375 -0.953125 C 108.78125 -0.640625 106.140625 -0.398438 103.421875 -0.234375 C 100.703125 -0.078125 97.898438 0 95.015625 0 L 24.71875 0 C 23.28125 0 22.160156 -0.316406 21.359375 -0.953125 L 16.3125 -0.953125 C 14.71875 -1.921875 13.757812 -3.523438 13.4375 -5.765625 L 13.203125 -5.765625 L 13.203125 -8.15625 L 13.671875 -8.15625 L 13.671875 -12.953125 L 13.203125 -12.953125 L 13.203125 -16.5625 L 11.28125 -16.5625 L 11.28125 -21.359375 L 12 -21.359375 L 12 -24.953125 L 11.75 -24.953125 L 11.75 -26.15625 L 13.671875 -26.15625 L 13.671875 -28.546875 L 13.4375 -28.546875 L 13.4375 -30.953125 L 9.125 -30.953125 L 9.125 -35.75 L 12.953125 -35.75 L 12.953125 -40.546875 L 13.203125 -40.546875 L 13.203125 -41.75 L 20.390625 -41.75 L 20.390625 -42.953125 L 9.359375 -42.953125 L 9.359375 -44.15625 L 16.3125 -44.15625 L 16.3125 -50.15625 L 12.953125 -50.15625 L 12.953125 -52.546875 L 12.71875 -52.546875 L 12.71875 -54.953125 L 18.953125 -54.953125 L 18.953125 -57.34375 L -8.640625 -57.34375 L -8.640625 -62.140625 L -9.59375 -62.140625 L -9.59375 -65.75 L -6.484375 -65.75 L -6.484375 -68.140625 L 3.359375 -68.140625 L 3.359375 -72.953125 L 9.59375 -72.953125 L 9.59375 -75.34375 L 13.203125 -75.34375 L 13.203125 -77.75 L 17.03125 -77.75 L 17.03125 -82.546875 L 22.5625 -82.546875 L 22.5625 -86.140625 L 27.828125 -86.140625 L 27.828125 -90.9375 L 11.75 -90.9375 L 11.75 -92.140625 L 6.484375 -92.140625 L 6.484375 -96.9375 L -4.078125 -96.9375 L -4.078125 -101.734375 L 23.28125 -101.734375 L 23.28125 -105.34375 L 2.15625 -105.34375 L 2.15625 -108.9375 L 13.671875 -108.9375 L 13.671875 -111.34375 L 13.203125 -111.34375 L 13.203125 -113.734375 L 11.28125 -113.734375 L 11.28125 -117.34375 L 0.953125 -117.34375 L 0.953125 -122.140625 L 38.390625 -122.140625 L 38.390625 -126.9375 L 47.265625 -126.9375 L 47.265625 -130.53125 L 4.078125 -130.53125 L 4.078125 -135.328125 L 32.390625 -135.328125 L 32.390625 -136.53125 L 10.078125 -136.53125 L 10.078125 -137.734375 L 55.421875 -137.734375 L 55.421875 -142.53125 L 49.671875 -142.53125 L 49.671875 -143.734375 L -7.4375 -143.734375 L -7.4375 -148.53125 L -0.484375 -148.53125 L -0.484375 -152.125 L 14.390625 -152.125 L 14.390625 -153.328125 L 22.3125 -153.328125 L 22.3125 -155.734375 L 18 -155.734375 L 18 -156.921875 L 12.953125 -156.921875 L 12.953125 -159.328125 L 13.4375 -159.328125 L 13.4375 -161.484375 C 13.4375 -161.804688 13.472656 -162.085938 13.546875 -162.328125 C 13.628906 -162.566406 13.671875 -162.765625 13.671875 -162.921875 L 14.640625 -162.921875 C 15.441406 -166.285156 17.597656 -167.96875 21.109375 -167.96875 L 90.21875 -167.96875 C 102.539062 -167.96875 113.738281 -166.285156 123.8125 -162.921875 L 122.859375 -162.921875 C 125.734375 -161.960938 128.691406 -160.765625 131.734375 -159.328125 L 131.25 -159.328125 C 132.050781 -159.003906 132.890625 -158.644531 133.765625 -158.25 C 134.648438 -157.851562 135.410156 -157.410156 136.046875 -156.921875 L 141.09375 -156.921875 L 143.25 -155.734375 L 147.328125 -155.734375 C 148.128906 -155.410156 148.804688 -155.007812 149.359375 -154.53125 C 149.921875 -154.050781 150.523438 -153.648438 151.171875 -153.328125 L 143.25 -153.328125 C 143.570312 -153.171875 143.890625 -153.007812 144.203125 -152.84375 C 144.523438 -152.6875 144.769531 -152.445312 144.9375 -152.125 L 130.046875 -152.125 L 134.609375 -148.53125 L 127.421875 -148.53125 C 129.171875 -147.09375 130.769531 -145.492188 132.21875 -143.734375 L 189.328125 -143.734375 C 189.484375 -143.566406 189.640625 -143.40625 189.796875 -143.25 C 189.960938 -143.09375 190.125 -142.851562 190.28125 -142.53125 L 196.28125 -142.53125 C 196.914062 -141.894531 197.550781 -141.132812 198.1875 -140.25 C 198.832031 -139.375 199.394531 -138.535156 199.875 -137.734375 L 154.53125 -137.734375 C 154.6875 -137.578125 154.84375 -137.414062 155 -137.25 C 155.164062 -137.09375 155.328125 -136.851562 155.484375 -136.53125 L 177.8125 -136.53125 L 178.53125 -135.328125 L 150.203125 -135.328125 C 151.328125 -133.734375 152.207031 -132.132812 152.84375 -130.53125 Z M 111.34375 -113.734375 C 110.382812 -115.171875 109.179688 -116.375 107.734375 -117.34375 L 88.296875 -117.34375 C 84.785156 -119.894531 80.46875 -121.171875 75.34375 -121.171875 L 60.953125 -121.171875 L 60.953125 -117.34375 L 71.265625 -117.34375 L 71.265625 -113.734375 L 73.1875 -113.734375 L 73.1875 -111.34375 L 73.671875 -111.34375 L 73.671875 -108.9375 L 62.140625 -108.9375 L 62.140625 -105.34375 L 83.265625 -105.34375 L 83.265625 -101.734375 L 55.90625 -101.734375 L 55.90625 -96.9375 L 66.46875 -96.9375 L 66.46875 -92.140625 L 71.75 -92.140625 L 71.75 -90.9375 L 87.828125 -90.9375 L 87.828125 -86.140625 L 82.546875 -86.140625 L 82.546875 -82.546875 L 77.03125 -82.546875 L 77.03125 -77.75 L 73.1875 -77.75 L 73.1875 -75.34375 L 69.59375 -75.34375 L 69.59375 -72.953125 L 63.34375 -72.953125 L 63.34375 -68.140625 L 53.515625 -68.140625 L 53.515625 -65.75 L 50.390625 -65.75 L 50.390625 -62.140625 L 51.34375 -62.140625 L 51.34375 -57.34375 L 78.9375 -57.34375 L 78.9375 -54.953125 L 72.703125 -54.953125 L 72.703125 -52.546875 L 72.953125 -52.546875 L 72.953125 -50.15625 L 76.3125 -50.15625 L 76.3125 -46.796875 L 91.90625 -46.796875 C 96.539062 -46.796875 100.457031 -47.914062 103.65625 -50.15625 L 99.828125 -50.15625 C 100.304688 -50.46875 100.785156 -50.820312 101.265625 -51.21875 C 101.742188 -51.625 102.140625 -52.066406 102.453125 -52.546875 L 77.5 -52.546875 C 77.820312 -52.867188 78.140625 -53.226562 78.453125 -53.625 C 78.773438 -54.03125 79.019531 -54.472656 79.1875 -54.953125 L 107.984375 -54.953125 C 108.296875 -55.265625 108.53125 -55.617188 108.6875 -56.015625 C 108.851562 -56.421875 109.015625 -56.863281 109.171875 -57.34375 L 114.703125 -57.34375 C 115.015625 -58.144531 115.25 -58.945312 115.40625 -59.75 C 115.570312 -60.550781 115.734375 -61.347656 115.890625 -62.140625 L 112.296875 -62.140625 C 112.453125 -62.785156 112.53125 -63.382812 112.53125 -63.9375 C 112.53125 -64.5 112.613281 -65.101562 112.78125 -65.75 L 103.90625 -65.75 L 103.90625 -66.234375 C 103.90625 -66.546875 103.941406 -66.863281 104.015625 -67.1875 C 104.097656 -67.507812 104.140625 -67.828125 104.140625 -68.140625 L 103.65625 -68.140625 C 103.65625 -68.941406 103.65625 -69.78125 103.65625 -70.65625 C 103.65625 -71.539062 103.738281 -72.304688 103.90625 -72.953125 L 108.21875 -72.953125 L 108.21875 -75.34375 L 109.65625 -75.34375 L 109.90625 -77.75 L 123.328125 -77.75 L 123.328125 -82.546875 L 109.171875 -82.546875 L 109.171875 -86.140625 L 108.21875 -86.140625 L 108.21875 -90.9375 L 111.578125 -90.9375 L 111.578125 -92.140625 L 102.703125 -92.140625 L 102.703125 -96.9375 L 97.421875 -96.9375 C 97.421875 -97.738281 97.421875 -98.539062 97.421875 -99.34375 C 97.421875 -100.144531 97.34375 -100.941406 97.1875 -101.734375 L 119.734375 -101.734375 L 119.734375 -101.984375 C 119.734375 -102.617188 119.691406 -103.21875 119.609375 -103.78125 C 119.535156 -104.34375 119.5 -104.863281 119.5 -105.34375 L 110.625 -105.34375 C 110.457031 -105.976562 110.296875 -106.578125 110.140625 -107.140625 C 109.984375 -107.703125 109.820312 -108.300781 109.65625 -108.9375 L 104.625 -108.9375 C 104.457031 -109.414062 104.296875 -109.851562 104.140625 -110.25 C 103.984375 -110.65625 103.820312 -111.019531 103.65625 -111.34375 L 110.140625 -111.34375 C 109.984375 -111.820312 109.78125 -112.257812 109.53125 -112.65625 C 109.289062 -113.0625 109.015625 -113.421875 108.703125 -113.734375 Z M 111.34375 -113.734375"/></g></g></g><g fill-opacity="1" fill="#222222"><g transform="translate(1062.96941, 486.412578)"><g><path d="M 164.84375 -41.75 L 183.796875 -41.75 L 183.796875 -38.15625 L 147.328125 -38.15625 L 147.328125 -33.359375 L 170.84375 -33.359375 L 170.84375 -28.546875 L 150.203125 -28.546875 L 150.203125 -23.75 L 152.84375 -23.75 L 152.84375 -20.15625 L 151.171875 -20.15625 L 151.171875 -17.75 L 146.125 -17.75 L 146.125 -15.359375 L 145.890625 -15.359375 L 145.890625 -12.953125 L 150.9375 -12.953125 L 150.9375 -8.15625 L 157.890625 -8.15625 L 157.890625 -6.484375 C 157.890625 -6.160156 157.8125 -5.921875 157.65625 -5.765625 L 114.9375 -5.765625 C 114.78125 -5.441406 114.703125 -5.039062 114.703125 -4.5625 L 131.25 -4.5625 C 130.769531 -2.957031 129.890625 -1.753906 128.609375 -0.953125 L 124.0625 -0.953125 C 123.257812 -0.316406 122.140625 0 120.703125 0 L -4.3125 0 C -5.59375 0 -6.796875 -0.316406 -7.921875 -0.953125 L -3.359375 -0.953125 C -4.472656 -1.753906 -5.351562 -2.957031 -6 -4.5625 L -22.796875 -4.5625 C -22.953125 -4.875 -23.03125 -5.273438 -23.03125 -5.765625 L 19.921875 -5.765625 L 19.921875 -8.15625 L 12.953125 -8.15625 L 12.953125 -12.953125 L 7.921875 -12.953125 L 7.921875 -15.359375 L 8.15625 -15.359375 L 8.15625 -17.75 L 13.203125 -17.75 L 13.203125 -20.15625 L 14.875 -20.15625 L 14.875 -23.75 L 12.234375 -23.75 L 12.234375 -28.546875 L 32.875 -28.546875 L 32.875 -33.359375 L 9.359375 -33.359375 L 9.359375 -38.15625 L 45.828125 -38.15625 L 45.828125 -41.75 L 26.875 -41.75 L 26.875 -44.15625 L 32.390625 -44.15625 L 32.390625 -46.546875 L 34.796875 -46.546875 L 34.796875 -48.953125 L 8.15625 -48.953125 L 8.15625 -51.34375 L 1.921875 -51.34375 L 1.921875 -54.953125 L 24.234375 -54.953125 L 24.234375 -56.15625 L 6.484375 -56.15625 L 6.484375 -58.546875 L 11.75 -58.546875 L 11.75 -60.953125 L 15.59375 -60.953125 L 15.59375 -64.546875 L 15.109375 -64.546875 L 15.109375 -69.34375 L 12.71875 -69.34375 L 12.71875 -74.140625 L 9.125 -74.140625 L 9.125 -76.546875 L 12 -76.546875 L 12 -81.34375 L 9.359375 -81.34375 L 9.359375 -83.75 L 13.203125 -83.75 L 13.203125 -87.34375 L 14.15625 -87.34375 L 14.15625 -90.9375 L 18.46875 -90.9375 L 18.46875 -92.140625 L 14.390625 -92.140625 L 14.390625 -96.9375 L 10.796875 -96.9375 L 10.796875 -100.546875 L 11.75 -100.546875 L 11.75 -104.140625 L 12.234375 -104.140625 L 12.234375 -108.9375 L 15.84375 -108.9375 L 15.84375 -113.734375 L 10.5625 -113.734375 L 10.5625 -118.53125 L 11.28125 -118.53125 L 11.28125 -123.328125 L 18 -123.328125 L 18 -126.9375 L 14.390625 -126.9375 L 14.390625 -130.53125 L 12.484375 -130.53125 L 12.484375 -131.734375 L 22.5625 -131.734375 L 22.5625 -135.328125 L 40.3125 -135.328125 L 40.3125 -137.734375 L 33.109375 -137.734375 L 33.109375 -140.125 L 9.84375 -140.125 L 9.84375 -141.328125 L 12.484375 -141.328125 L 12.484375 -144.9375 L 12.71875 -144.9375 L 12.71875 -148.53125 L 13.4375 -148.53125 L 13.4375 -153.328125 L 13.203125 -153.328125 L 13.203125 -159.328125 L 12.71875 -159.328125 L 12.71875 -161.484375 C 12.71875 -162.128906 12.796875 -162.609375 12.953125 -162.921875 L 10.5625 -162.921875 C 11.195312 -166.285156 13.273438 -167.96875 16.796875 -167.96875 L 139.890625 -167.96875 C 143.566406 -167.96875 145.644531 -166.285156 146.125 -162.921875 L 148.53125 -162.921875 C 148.6875 -162.609375 148.765625 -162.128906 148.765625 -161.484375 L 148.765625 -159.328125 L 149.25 -159.328125 L 149.25 -153.328125 L 149.484375 -153.328125 L 149.484375 -148.53125 L 148.765625 -148.53125 L 148.765625 -144.9375 L 148.53125 -144.9375 L 148.53125 -141.328125 L 145.890625 -141.328125 L 145.890625 -140.125 L 169.171875 -140.125 L 169.171875 -137.734375 L 176.359375 -137.734375 L 176.359375 -135.328125 L 158.609375 -135.328125 L 158.609375 -131.734375 L 148.53125 -131.734375 L 148.53125 -130.53125 L 150.453125 -130.53125 L 150.453125 -126.9375 L 154.046875 -126.9375 C 153.722656 -125.332031 153.164062 -124.128906 152.375 -123.328125 L 145.65625 -123.328125 C 144.53125 -121.890625 142.929688 -121.171875 140.859375 -121.171875 L 68.859375 -121.171875 L 68.859375 -118.53125 L 68.140625 -118.53125 L 68.140625 -113.734375 L 73.421875 -113.734375 L 73.421875 -108.9375 L 69.828125 -108.9375 L 69.828125 -106.0625 L 136.53125 -106.0625 C 138.289062 -106.0625 139.8125 -105.421875 141.09375 -104.140625 L 140.609375 -104.140625 C 141.410156 -103.335938 141.972656 -102.140625 142.296875 -100.546875 L 141.578125 -100.546875 L 141.578125 -96.9375 L 145.171875 -96.9375 L 145.171875 -92.140625 L 149.25 -92.140625 L 149.25 -90.9375 L 144.9375 -90.9375 L 144.9375 -87.34375 L 143.96875 -87.34375 L 143.96875 -83.75 L 140.125 -83.75 L 140.125 -81.34375 L 142.765625 -81.34375 L 142.765625 -76.546875 L 139.890625 -76.546875 L 139.890625 -74.140625 L 143.484375 -74.140625 L 143.484375 -69.34375 L 145.890625 -69.34375 L 145.890625 -68.390625 C 145.890625 -66.628906 145.488281 -65.347656 144.6875 -64.546875 L 145.171875 -64.546875 C 143.890625 -62.785156 142.128906 -61.90625 139.890625 -61.90625 L 73.1875 -61.90625 L 73.1875 -60.953125 L 69.34375 -60.953125 L 69.34375 -58.546875 L 64.0625 -58.546875 L 64.0625 -56.15625 L 81.828125 -56.15625 L 81.828125 -54.953125 L 59.515625 -54.953125 L 59.515625 -51.34375 L 65.75 -51.34375 L 65.75 -48.953125 L 92.375 -48.953125 L 92.375 -46.796875 L 166.28125 -46.796875 C 167.082031 -46.796875 167.722656 -46.710938 168.203125 -46.546875 L 165.5625 -46.546875 C 167.164062 -46.066406 168.367188 -45.269531 169.171875 -44.15625 L 163.640625 -44.15625 C 164.285156 -43.195312 164.6875 -42.394531 164.84375 -41.75 Z M 164.84375 -41.75"/></g></g></g><g fill-opacity="1" fill="#222222"><g transform="translate(1223.015555, 486.412578)"><g><path d="M 166.53125 -120.9375 L 158.609375 -120.9375 L 158.375 -119.734375 L 181.171875 -119.734375 L 179.71875 -114.9375 L 160.53125 -114.9375 L 159.328125 -110.140625 L 158.375 -110.140625 L 157.65625 -107.734375 L 139.40625 -107.734375 L 137.96875 -102.9375 L 126.9375 -102.9375 L 126.21875 -100.546875 L 154.046875 -100.546875 L 153.8125 -99.34375 L 155.25 -99.34375 L 153.8125 -94.546875 L 150.453125 -94.546875 L 149.484375 -90.9375 L 153.8125 -90.9375 L 153.09375 -88.546875 L 154.046875 -88.546875 L 153.328125 -86.140625 L 146.84375 -86.140625 L 145.890625 -82.546875 L 150.453125 -82.546875 L 149.734375 -80.140625 L 143.25 -80.140625 L 142.765625 -77.75 L 137.5 -77.75 L 136.53125 -74.140625 L 134.140625 -74.140625 L 133.40625 -71.75 L 144.6875 -71.75 L 143.96875 -69.34375 L 151.890625 -69.34375 L 151.40625 -68.140625 L 128.140625 -68.140625 L 126.6875 -63.34375 L 136.296875 -63.34375 L 135.328125 -59.75 L 125.25 -59.75 L 123.8125 -54.953125 L 136.765625 -54.953125 L 135.578125 -51.34375 L 137.734375 -51.34375 L 137.5 -50.15625 L 138.9375 -50.15625 L 138.453125 -48.953125 L 139.40625 -48.953125 L 139.171875 -47.75 L 137.5 -47.75 L 136.765625 -45.34375 L 134.375 -45.34375 L 133.40625 -41.75 L 134.609375 -41.75 L 133.890625 -39.359375 L 134.375 -39.359375 L 133.171875 -35.75 L 133.40625 -35.75 L 132.453125 -32.15625 L 132.21875 -32.15625 L 131.015625 -28.546875 L 127.890625 -28.546875 L 127.171875 -26.15625 L 128.140625 -26.15625 L 127.890625 -24.953125 L 129.8125 -24.953125 L 128.375 -20.15625 L 130.296875 -20.15625 L 129.578125 -17.75 L 128.375 -17.75 L 127.421875 -14.15625 L 129.328125 -14.15625 L 128.609375 -11.75 L 126.21875 -11.75 L 125.734375 -9.359375 L 120.453125 -9.359375 L 119.96875 -7.921875 L 119.734375 -6.953125 L 132.453125 -6.953125 C 131.648438 -5.191406 130.453125 -3.59375 128.859375 -2.15625 L 98.140625 -2.15625 C 97.660156 -1.675781 97.019531 -1.273438 96.21875 -0.953125 L 122.609375 -0.953125 C 121.972656 -0.796875 121.253906 -0.597656 120.453125 -0.359375 C 119.648438 -0.117188 118.769531 0 117.8125 0 L 63.109375 0 C 62.148438 0 61.3125 -0.117188 60.59375 -0.359375 C 59.875 -0.597656 59.113281 -0.796875 58.3125 -0.953125 L 31.671875 -0.953125 C 31.035156 -1.273438 30.394531 -1.675781 29.75 -2.15625 L 60.234375 -2.15625 C 58.628906 -3.59375 57.425781 -5.191406 56.625 -6.953125 L 44.15625 -6.953125 C 43.988281 -7.117188 43.90625 -7.28125 43.90625 -7.4375 C 43.90625 -7.59375 43.828125 -7.753906 43.671875 -7.921875 L 43.1875 -9.359375 L 48.46875 -9.359375 L 47.75 -11.75 L 50.15625 -11.75 L 49.4375 -14.15625 L 47.265625 -14.15625 L 46.3125 -17.75 L 47.265625 -17.75 L 46.546875 -20.15625 L 44.875 -20.15625 L 43.4375 -24.953125 L 41.515625 -24.953125 L 41.265625 -26.15625 L 40.3125 -26.15625 L 39.59375 -28.546875 L 42.71875 -28.546875 L 41.515625 -32.15625 L 41.75 -32.15625 L 40.796875 -35.75 L 40.546875 -35.75 L 39.59375 -39.359375 L 39.109375 -39.359375 L 38.390625 -41.75 L 37.1875 -41.75 L 36.234375 -45.34375 L 38.390625 -45.34375 L 37.671875 -47.75 L 39.359375 -47.75 L 39.109375 -48.953125 L 38.15625 -48.953125 L 37.671875 -50.15625 L 36.234375 -50.15625 L 36 -51.34375 L 33.828125 -51.34375 L 32.640625 -54.953125 L 19.671875 -54.953125 L 18.234375 -59.75 L 28.3125 -59.75 L 27.359375 -63.34375 L 17.75 -63.34375 L 16.3125 -68.140625 L 39.59375 -68.140625 L 39.359375 -69.34375 L 31.671875 -69.34375 L 30.953125 -71.75 L 38.390625 -71.75 L 37.671875 -74.140625 L 27.359375 -74.140625 L 26.390625 -77.75 L 29.75 -77.75 L 29.03125 -80.140625 L 27.59375 -80.140625 L 26.875 -82.546875 L 30.71875 -82.546875 L 29.75 -86.140625 L 24.71875 -86.140625 L 24 -88.546875 L 33.109375 -88.546875 L 32.390625 -90.9375 L 23.28125 -90.9375 L 22.3125 -94.546875 L 24.953125 -94.546875 L 23.515625 -99.34375 L 15.109375 -99.34375 L 14.640625 -100.546875 L 15.84375 -100.546875 L 15.109375 -102.9375 L 25.4375 -102.9375 L 24 -107.734375 L 17.515625 -107.734375 L 16.796875 -110.140625 L 18.71875 -110.140625 L 17.515625 -114.9375 L 31.90625 -114.9375 L 30.46875 -119.734375 L 8.15625 -119.734375 L 7.671875 -120.9375 L 57.59375 -120.9375 L 56.875 -123.328125 L 30 -123.328125 L 28.796875 -126.9375 L 45.828125 -126.9375 L 44.390625 -131.734375 L 42.46875 -131.734375 L 41.03125 -136.53125 L 32.640625 -136.53125 L 31.90625 -138.9375 L 8.640625 -138.9375 L 7.203125 -143.734375 L 8.875 -143.734375 L 8.15625 -146.125 L 7.921875 -147.328125 L 6.71875 -147.328125 L 6.234375 -148.53125 L 4.796875 -153.328125 L 3.59375 -153.328125 L 3.125 -154.53125 L 1.203125 -154.53125 L 0.234375 -158.125 L -17.28125 -158.125 L -17.75 -159.328125 L -4.078125 -159.328125 L -4.5625 -161.015625 C -4.5625 -161.171875 -4.597656 -161.285156 -4.671875 -161.359375 C -4.753906 -161.441406 -4.796875 -161.566406 -4.796875 -161.734375 L -1.921875 -161.734375 L -1.921875 -162.6875 C -1.921875 -164.125 -1.359375 -165.40625 -0.234375 -166.53125 L -10.796875 -166.53125 C -9.835938 -167.488281 -8.640625 -167.96875 -7.203125 -167.96875 L 37.4375 -167.96875 C 39.832031 -167.96875 41.75 -167.488281 43.1875 -166.53125 L 53.75 -166.53125 C 55.664062 -165.40625 57.1875 -163.804688 58.3125 -161.734375 L 55.1875 -161.734375 L 55.90625 -160.046875 L 56.15625 -159.328125 L 42.46875 -159.328125 L 42.71875 -158.125 L 60.234375 -158.125 L 61.1875 -154.53125 L 63.109375 -154.53125 L 63.34375 -153.328125 L 64.78125 -153.328125 L 65.984375 -148.53125 L 66.234375 -147.328125 L 67.671875 -147.328125 L 67.90625 -146.125 L 67.671875 -146.125 L 68.390625 -143.734375 L 66.953125 -143.734375 L 68.140625 -138.9375 L 91.421875 -138.9375 L 91.90625 -136.53125 L 101.5 -136.53125 L 102.21875 -138.9375 L 103.421875 -138.9375 L 104.625 -143.734375 L 105.34375 -143.734375 L 105.8125 -146.125 L 106.546875 -146.125 L 106.78125 -147.328125 L 100.546875 -147.328125 L 100.78125 -148.53125 L 106.78125 -148.53125 L 107.984375 -153.328125 L 103.421875 -153.328125 L 103.65625 -154.53125 L 85.1875 -154.53125 L 86.140625 -158.125 L 94.546875 -158.125 L 94.78125 -159.328125 L 78.9375 -159.328125 L 79.1875 -160.046875 C 79.34375 -160.367188 79.421875 -160.6875 79.421875 -161 C 79.421875 -161.320312 79.503906 -161.566406 79.671875 -161.734375 L 108.453125 -161.734375 C 109.253906 -163.804688 110.695312 -165.40625 112.78125 -166.53125 L 121.65625 -166.53125 C 123.414062 -167.488281 125.414062 -167.96875 127.65625 -167.96875 L 172.28125 -167.96875 C 173.726562 -167.96875 174.929688 -167.488281 175.890625 -166.53125 L 166.765625 -166.53125 C 167.890625 -165.40625 168.453125 -164.125 168.453125 -162.6875 L 168.453125 -161.734375 L 139.890625 -161.734375 C 139.734375 -161.566406 139.65625 -161.328125 139.65625 -161.015625 L 139.171875 -159.328125 L 155.015625 -159.328125 L 154.765625 -158.125 L 146.125 -158.125 L 145.171875 -154.53125 L 163.640625 -154.53125 L 163.40625 -153.328125 L 167.734375 -153.328125 L 166.28125 -148.53125 L 160.53125 -148.53125 L 160.28125 -147.328125 L 166.53125 -147.328125 L 166.28125 -146.125 L 165.5625 -146.125 L 164.84375 -143.734375 L 164.125 -143.734375 L 162.6875 -138.9375 L 161.484375 -138.9375 L 160.765625 -136.53125 L 159.09375 -136.53125 L 157.890625 -131.734375 L 187.640625 -131.734375 L 186.203125 -126.9375 L 169.640625 -126.9375 L 168.453125 -123.328125 L 167 -123.328125 Z M 87.828125 -126.9375 L 88.546875 -123.328125 L 109.65625 -123.328125 L 110.625 -126.9375 L 127.421875 -126.9375 L 128.609375 -131.734375 L 103.421875 -131.734375 L 104.625 -126.9375 Z M 121.171875 -114.9375 L 122.375 -119.734375 L 99.828125 -119.734375 L 100.0625 -120.9375 L 66.46875 -120.9375 L 66.703125 -119.734375 L 89.015625 -119.734375 L 90.46875 -114.9375 L 75.828125 -114.9375 L 77.03125 -110.140625 L 75.109375 -110.140625 L 75.828125 -107.734375 L 99.578125 -107.734375 L 100.0625 -110.140625 L 101.015625 -110.140625 L 102.21875 -114.9375 Z M 97.421875 -99.34375 L 95.984375 -99.34375 L 96.21875 -100.546875 L 72.703125 -100.546875 L 72.953125 -99.34375 L 81.34375 -99.34375 L 82.546875 -94.546875 L 79.90625 -94.546875 L 80.859375 -90.9375 L 89.75 -90.9375 L 90.46875 -88.546875 L 81.34375 -88.546875 L 82.0625 -86.140625 L 87.109375 -86.140625 L 87.828125 -82.546875 L 83.984375 -82.546875 L 84.703125 -80.140625 L 85.90625 -80.140625 L 86.140625 -79.421875 L 86.390625 -80.140625 L 92.625 -80.140625 L 93.34375 -82.546875 L 88.78125 -82.546875 L 89.5 -86.140625 L 96.21875 -86.140625 L 96.703125 -88.546875 L 95.734375 -88.546875 L 96.21875 -90.9375 L 92.140625 -90.9375 L 92.859375 -94.546875 L 96.21875 -94.546875 Z M 97.421875 -99.34375"/></g></g></g></svg>